Normalized EMG Linear Envelopes
nRows=43
nColumns=17

endheader
time	        VM	        VL	        RF	       GRA	        TA	   ADDLONG	   SEMIMEM	      BFLH	        GM	        GL	       TFL	   GLUTMAX	   GLUTMED	      PIRI	    OBTINT	        QF	
2.5275	  0.099470	  0.096158	  0.562848	  0.372679	  0.471897	  0.245013	  0.125919	  0.090120	  0.096665	  0.140079	  0.423319	  0.033720	  0.112616	  0.428464	  0.770225	  0.075589	
2.528	  0.099652	  0.096659	  0.566554	  0.370600	  0.468725	  0.242729	  0.125094	  0.089953	  0.094965	  0.138403	  0.423537	  0.033944	  0.113773	  0.430325	  0.778252	  0.075892	
2.5285	  0.099826	  0.097156	  0.570239	  0.368560	  0.465615	  0.240448	  0.124269	  0.089783	  0.093283	  0.136742	  0.423733	  0.034169	  0.114956	  0.432127	  0.786402	  0.076204	
2.529	  0.099992	  0.097649	  0.573900	  0.366557	  0.462567	  0.238171	  0.123444	  0.089612	  0.091617	  0.135094	  0.423906	  0.034394	  0.116162	  0.433867	  0.794679	  0.076525	
2.5295	  0.100149	  0.098139	  0.577540	  0.364592	  0.459581	  0.235898	  0.122617	  0.089439	  0.089968	  0.133459	  0.424056	  0.034620	  0.117391	  0.435547	  0.803087	  0.076855	
2.53	  0.100297	  0.098625	  0.581156	  0.362664	  0.456657	  0.233630	  0.121790	  0.089263	  0.088337	  0.131839	  0.424183	  0.034845	  0.118643	  0.437165	  0.811630	  0.077192	
2.5305	  0.100438	  0.099108	  0.584749	  0.360770	  0.453795	  0.231368	  0.120961	  0.089085	  0.086723	  0.130233	  0.424288	  0.035072	  0.119918	  0.438719	  0.820313	  0.077538	
2.531	  0.100570	  0.099586	  0.588319	  0.358910	  0.450994	  0.229113	  0.120131	  0.088905	  0.085127	  0.128642	  0.424370	  0.035298	  0.121215	  0.440210	  0.829139	  0.077892	
2.5315	  0.100694	  0.100061	  0.591865	  0.357084	  0.448254	  0.226867	  0.119298	  0.088721	  0.083548	  0.127065	  0.424431	  0.035524	  0.122533	  0.441637	  0.838115	  0.078253	
2.532	  0.100809	  0.100532	  0.595388	  0.355289	  0.445575	  0.224629	  0.118464	  0.088534	  0.081988	  0.125502	  0.424469	  0.035750	  0.123872	  0.443000	  0.847242	  0.078621	
2.5325	  0.100917	  0.100999	  0.598887	  0.353525	  0.442957	  0.222401	  0.117627	  0.088344	  0.080445	  0.123954	  0.424487	  0.035976	  0.125232	  0.444299	  0.856526	  0.078997	
2.533	  0.101017	  0.101462	  0.602361	  0.351790	  0.440400	  0.220184	  0.116787	  0.088150	  0.078921	  0.122421	  0.424484	  0.036202	  0.126611	  0.445534	  0.865970	  0.079379	
2.5335	  0.101109	  0.101921	  0.605810	  0.350084	  0.437903	  0.217978	  0.115945	  0.087953	  0.077415	  0.120903	  0.424462	  0.036427	  0.128009	  0.446705	  0.875578	  0.079768	
2.534	  0.101193	  0.102377	  0.609234	  0.348404	  0.435466	  0.215785	  0.115099	  0.087752	  0.075927	  0.119401	  0.424421	  0.036652	  0.129426	  0.447814	  0.885352	  0.080163	
2.5345	  0.101270	  0.102828	  0.612632	  0.346751	  0.433089	  0.213606	  0.114250	  0.087547	  0.074458	  0.117913	  0.424362	  0.036876	  0.130860	  0.448862	  0.895296	  0.080563	
2.535	  0.101339	  0.103276	  0.616003	  0.345122	  0.430771	  0.211439	  0.113397	  0.087339	  0.073008	  0.116440	  0.424285	  0.037099	  0.132312	  0.449850	  0.905413	  0.080970	
2.5355	  0.101400	  0.103720	  0.619349	  0.343516	  0.428511	  0.209288	  0.112540	  0.087127	  0.071576	  0.114983	  0.424191	  0.037322	  0.133780	  0.450779	  0.915706	  0.081382	
2.536	  0.101454	  0.104160	  0.622667	  0.341932	  0.426310	  0.207152	  0.111679	  0.086912	  0.070163	  0.113541	  0.424081	  0.037543	  0.135263	  0.451652	  0.926177	  0.081798	
2.5365	  0.101501	  0.104596	  0.625957	  0.340370	  0.424166	  0.205032	  0.110814	  0.086692	  0.068770	  0.112114	  0.423954	  0.037763	  0.136762	  0.452470	  0.936830	  0.082220	
2.537	  0.101540	  0.105028	  0.629218	  0.338828	  0.422078	  0.202929	  0.109945	  0.086470	  0.067395	  0.110703	  0.423811	  0.037981	  0.138274	  0.453233	  0.947665	  0.082645	
2.5375	  0.101572	  0.105456	  0.632449	  0.337306	  0.420046	  0.200843	  0.109072	  0.086243	  0.066039	  0.109307	  0.423653	  0.038198	  0.139800	  0.453946	  0.958687	  0.083075	
2.538	  0.101598	  0.105880	  0.635650	  0.335802	  0.418068	  0.198776	  0.108194	  0.086013	  0.064703	  0.107927	  0.423479	  0.038413	  0.141339	  0.454607	  0.969897	  0.083508	
2.5385	  0.101617	  0.106299	  0.638819	  0.334317	  0.416144	  0.196727	  0.107312	  0.085780	  0.063386	  0.106562	  0.423290	  0.038626	  0.142890	  0.455221	  0.981298	  0.083944	
2.539	  0.101629	  0.106715	  0.641954	  0.332850	  0.414273	  0.194697	  0.106426	  0.085543	  0.062088	  0.105213	  0.423086	  0.038836	  0.144451	  0.455786	  0.992892	  0.084383	
2.5395	  0.101635	  0.107126	  0.645055	  0.331399	  0.412452	  0.192687	  0.105535	  0.085302	  0.060809	  0.103879	  0.422867	  0.039044	  0.146023	  0.456306	  1.004680	  0.084825	
2.54	  0.101635	  0.107533	  0.648119	  0.329964	  0.410682	  0.190697	  0.104640	  0.085057	  0.059549	  0.102560	  0.422634	  0.039250	  0.147604	  0.456782	  1.016666	  0.085270	
2.5405	  0.101629	  0.107936	  0.651145	  0.328543	  0.408960	  0.188727	  0.103740	  0.084808	  0.058309	  0.101257	  0.422386	  0.039452	  0.149194	  0.457214	  1.028850	  0.085716	
2.541	  0.101617	  0.108335	  0.654132	  0.327136	  0.407286	  0.186778	  0.102835	  0.084555	  0.057088	  0.099969	  0.422122	  0.039652	  0.150791	  0.457605	  1.041234	  0.086165	
2.5415	  0.101600	  0.108729	  0.657078	  0.325742	  0.405658	  0.184851	  0.101926	  0.084297	  0.055885	  0.098696	  0.421845	  0.039849	  0.152394	  0.457955	  1.053818	  0.086616	
2.542	  0.101577	  0.109119	  0.659980	  0.324360	  0.404075	  0.182945	  0.101011	  0.084035	  0.054702	  0.097437	  0.421552	  0.040042	  0.154004	  0.458267	  1.066604	  0.087068	
2.5425	  0.101549	  0.109505	  0.662837	  0.322988	  0.402536	  0.181061	  0.100092	  0.083769	  0.053538	  0.096194	  0.421245	  0.040232	  0.155619	  0.458541	  1.079592	  0.087523	
2.543	  0.101517	  0.109886	  0.665646	  0.321625	  0.401039	  0.179200	  0.099168	  0.083498	  0.052393	  0.094965	  0.420923	  0.040418	  0.157238	  0.458780	  1.092782	  0.087978	
2.5435	  0.101480	  0.110263	  0.668406	  0.320270	  0.399582	  0.177361	  0.098239	  0.083223	  0.051266	  0.093751	  0.420587	  0.040601	  0.158862	  0.458983	  1.106175	  0.088436	
2.544	  0.101438	  0.110635	  0.671115	  0.318923	  0.398165	  0.175545	  0.097305	  0.082943	  0.050158	  0.092551	  0.420235	  0.040781	  0.160488	  0.459153	  1.119770	  0.088894	
2.5445	  0.101393	  0.111004	  0.673771	  0.317583	  0.396786	  0.173753	  0.096367	  0.082658	  0.049069	  0.091365	  0.419870	  0.040956	  0.162118	  0.459290	  1.133567	  0.089354	
2.545	  0.101344	  0.111368	  0.676375	  0.316248	  0.395443	  0.171984	  0.095423	  0.082368	  0.047998	  0.090194	  0.419489	  0.041128	  0.163749	  0.459395	  1.147565	  0.089814	
2.5455	  0.101292	  0.111727	  0.678925	  0.314919	  0.394135	  0.170238	  0.094475	  0.082074	  0.046945	  0.089036	  0.419094	  0.041296	  0.165382	  0.459469	  1.161763	  0.090276	
2.546	  0.101237	  0.112083	  0.681420	  0.313595	  0.392860	  0.168516	  0.093523	  0.081775	  0.045911	  0.087892	  0.418684	  0.041460	  0.167016	  0.459513	  1.176160	  0.090738	
2.5465	  0.101179	  0.112434	  0.683860	  0.312275	  0.391617	  0.166819	  0.092568	  0.081472	  0.044895	  0.086761	  0.418259	  0.041620	  0.168650	  0.459528	  1.190754	  0.091200	
2.547	  0.101119	  0.112781	  0.686245	  0.310959	  0.390405	  0.165145	  0.091608	  0.081164	  0.043897	  0.085643	  0.417820	  0.041775	  0.170283	  0.459514	  1.205543	  0.091663	
2.5475	  0.101056	  0.113123	  0.688573	  0.309647	  0.389222	  0.163495	  0.090645	  0.080851	  0.042916	  0.084539	  0.417366	  0.041926	  0.171915	  0.459472	  1.220525	  0.092126	
2.548	  0.100992	  0.113461	  0.690844	  0.308338	  0.388068	  0.161869	  0.089679	  0.080534	  0.041953	  0.083447	  0.416898	  0.042073	  0.173545	  0.459403	  1.235697	  0.092588	
2.5485	  0.100927	  0.113795	  0.693058	  0.307031	  0.386942	  0.160268	  0.088711	  0.080213	  0.041008	  0.082368	  0.416416	  0.042216	  0.175173	  0.459307	  1.251057	  0.093050	
